<svg width="332" height="248" viewBox="0 0 332 248" fill="none" xmlns="http://www.w3.org/2000/svg">
<path d="M331.823 217.278H0V217.443H331.823V217.278Z" fill="#EBEBEB"/>
<mask id="path-2-inside-1_1919_4493" fill="white">
<path d="M157.284 187.679H29.1407C28.1368 187.677 27.1747 187.277 26.4655 186.567C25.7562 185.856 25.3579 184.893 25.3579 183.89V3.75623C25.3666 2.75813 25.7688 1.80377 26.4771 1.10047C27.1854 0.397164 28.1425 0.00170981 29.1407 0H157.284C158.289 0 159.253 0.399241 159.964 1.10989C160.674 1.82055 161.073 2.7844 161.073 3.78942V183.89C161.073 184.895 160.674 185.858 159.964 186.569C159.253 187.28 158.289 187.679 157.284 187.679ZM29.1407 0.13273C28.1808 0.134488 27.2609 0.517023 26.5828 1.19637C25.9047 1.87572 25.5238 2.79637 25.5238 3.75623V183.89C25.5238 184.849 25.9047 185.77 26.5828 186.449C27.2609 187.129 28.1808 187.511 29.1407 187.513H157.284C158.244 187.511 159.165 187.129 159.844 186.45C160.523 185.771 160.906 184.85 160.908 183.89V3.75623C160.906 2.79576 160.523 1.87513 159.844 1.19597C159.165 0.516807 158.244 0.134484 157.284 0.13273H29.1407Z"/>
</mask>
<path d="M157.284 187.679H29.1407C28.1368 187.677 27.1747 187.277 26.4655 186.567C25.7562 185.856 25.3579 184.893 25.3579 183.89V3.75623C25.3666 2.75813 25.7688 1.80377 26.4771 1.10047C27.1854 0.397164 28.1425 0.00170981 29.1407 0H157.284C158.289 0 159.253 0.399241 159.964 1.10989C160.674 1.82055 161.073 2.7844 161.073 3.78942V183.89C161.073 184.895 160.674 185.858 159.964 186.569C159.253 187.28 158.289 187.679 157.284 187.679ZM29.1407 0.13273C28.1808 0.134488 27.2609 0.517023 26.5828 1.19637C25.9047 1.87572 25.5238 2.79637 25.5238 3.75623V183.89C25.5238 184.849 25.9047 185.77 26.5828 186.449C27.2609 187.129 28.1808 187.511 29.1407 187.513H157.284C158.244 187.511 159.165 187.129 159.844 186.45C160.523 185.771 160.906 184.85 160.908 183.89V3.75623C160.906 2.79576 160.523 1.87513 159.844 1.19597C159.165 0.516807 158.244 0.134484 157.284 0.13273H29.1407Z" fill="#EBEBEB"/>
<path d="M29.1407 187.679L29.1302 193.679H29.1407V187.679ZM25.3579 183.89L31.3579 183.89V183.89H25.3579ZM25.3579 3.75623L19.3581 3.7037L19.3579 3.72997V3.75623H25.3579ZM29.1407 0V-6.00001L29.1304 -5.99999L29.1407 0ZM157.284 0V-6V0ZM161.073 183.89H155.073H161.073ZM29.1407 0.13273V-5.86728L29.1297 -5.86726L29.1407 0.13273ZM25.5238 3.75623H31.5238V3.75622L25.5238 3.75623ZM25.5238 183.89L31.5238 183.89V183.89H25.5238ZM29.1407 187.513L29.1297 193.513H29.1407V187.513ZM157.284 187.513V193.513L157.295 193.513L157.284 187.513ZM160.908 183.89L166.908 183.9V183.89H160.908ZM160.908 3.75623H166.908L166.908 3.74527L160.908 3.75623ZM157.284 0.13273L157.295 -5.86727H157.284V0.13273ZM157.284 187.679V181.679H29.1407V187.679V193.679H157.284V187.679ZM29.1407 187.679L29.1512 181.679C29.7368 181.68 30.2981 181.913 30.7118 182.328L26.4655 186.567L22.2191 190.806C24.0513 192.641 26.5369 193.674 29.1302 193.679L29.1407 187.679ZM26.4655 186.567L30.7118 182.328C31.1255 182.742 31.3579 183.304 31.3579 183.89L25.3579 183.89H19.3579C19.3579 186.483 20.3869 188.97 22.2191 190.806L26.4655 186.567ZM25.3579 183.89H31.3579V3.75623H25.3579H19.3579V183.89H25.3579ZM25.3579 3.75623L31.3577 3.80876C31.3526 4.39102 31.118 4.94774 30.7048 5.35802L26.4771 1.10047L22.2494 -3.15708C20.4197 -1.34019 19.3807 1.12524 19.3581 3.7037L25.3579 3.75623ZM26.4771 1.10047L30.7048 5.35802C30.2916 5.7683 29.7332 5.99899 29.151 5.99999L29.1407 0L29.1304 -5.99999C26.5519 -5.99557 24.0792 -4.97398 22.2494 -3.15708L26.4771 1.10047ZM29.1407 0V6H157.284V0V-6H29.1407V0ZM157.284 0V6C156.698 6 156.135 5.7671 155.721 5.35254L159.964 1.10989L164.206 -3.13275C162.37 -4.96862 159.88 -6 157.284 -6V0ZM159.964 1.10989L155.721 5.35254C155.306 4.93798 155.073 4.37571 155.073 3.78942H161.073H167.073C167.073 1.19309 166.042 -1.29688 164.206 -3.13275L159.964 1.10989ZM161.073 3.78942H155.073V183.89H161.073H167.073V3.78942H161.073ZM161.073 183.89H155.073C155.073 183.303 155.306 182.741 155.721 182.326L159.964 186.569L164.206 190.812C166.042 188.976 167.073 186.486 167.073 183.89H161.073ZM159.964 186.569L155.721 182.326C156.136 181.912 156.698 181.679 157.284 181.679V187.679V193.679C159.88 193.679 162.37 192.648 164.206 190.812L159.964 186.569ZM29.1407 0.13273L29.1297 -5.86726C26.5804 -5.86259 24.1372 -4.84663 22.3362 -3.04238L26.5828 1.19637L30.8293 5.43512C30.3846 5.88068 29.7812 6.13157 29.1517 6.13272L29.1407 0.13273ZM26.5828 1.19637L22.3362 -3.04238C20.5353 -1.23813 19.5238 1.20698 19.5238 3.75624L25.5238 3.75623L31.5238 3.75622C31.5238 4.38576 31.274 4.98957 30.8293 5.43512L26.5828 1.19637ZM25.5238 3.75623H19.5238V183.89H25.5238H31.5238V3.75623H25.5238ZM25.5238 183.89H19.5238C19.5238 186.439 20.5353 188.884 22.3362 190.688L26.5828 186.449L30.8293 182.211C31.274 182.656 31.5238 183.26 31.5238 183.89L25.5238 183.89ZM26.5828 186.449L22.3362 190.688C24.1372 192.492 26.5805 193.508 29.1297 193.513L29.1407 187.513L29.1517 181.513C29.7812 181.514 30.3846 181.765 30.8293 182.211L26.5828 186.449ZM29.1407 187.513V193.513H157.284V187.513V181.513H29.1407V187.513ZM157.284 187.513L157.295 193.513C159.843 193.508 162.285 192.494 164.087 190.692L159.844 186.45L155.602 182.207C156.045 181.764 156.646 181.514 157.273 181.513L157.284 187.513ZM159.844 186.45L164.087 190.692C165.889 188.891 166.903 186.449 166.908 183.9L160.908 183.89L154.908 183.879C154.909 183.252 155.158 182.651 155.602 182.207L159.844 186.45ZM160.908 183.89H166.908V3.75623H160.908H154.908V183.89H160.908ZM160.908 3.75623L166.908 3.74527C166.903 1.19727 165.889 -1.245 164.087 -3.04667L159.844 1.19597L155.602 5.43861C155.158 4.99525 154.909 4.39425 154.908 3.76719L160.908 3.75623ZM159.844 1.19597L164.087 -3.04667C162.285 -4.84837 159.843 -5.86261 157.295 -5.86726L157.284 0.13273L157.273 6.13272C156.646 6.13157 156.045 5.88198 155.602 5.43861L159.844 1.19597ZM157.284 0.13273V-5.86727H29.1407V0.13273V6.13273H157.284V0.13273Z" fill="white" mask="url(#path-2-inside-1_1919_4493)"/>
<mask id="path-4-inside-2_1919_4493" fill="white">
<path d="M300.837 187.679H172.687C171.683 187.677 170.72 187.277 170.01 186.567C169.299 185.857 168.9 184.894 168.898 183.89V3.75623C168.908 2.75752 169.312 1.80318 170.021 1.10005C170.731 0.396932 171.688 0.00169116 172.687 0H300.837C301.834 0.00345394 302.79 0.39968 303.496 1.1028C304.203 1.80592 304.605 2.75927 304.613 3.75623V183.89C304.613 184.892 304.216 185.854 303.508 186.564C302.8 187.275 301.84 187.675 300.837 187.679ZM172.687 0.13273C171.727 0.134484 170.806 0.516807 170.127 1.19597C169.448 1.87513 169.065 2.79576 169.064 3.75623V183.89C169.065 184.85 169.448 185.771 170.127 186.45C170.806 187.129 171.727 187.511 172.687 187.513H300.837C301.798 187.511 302.718 187.129 303.397 186.45C304.077 185.771 304.459 184.85 304.461 183.89V3.75623C304.459 2.79576 304.077 1.87513 303.397 1.19597C302.718 0.516807 301.798 0.134484 300.837 0.13273H172.687Z"/>
</mask>
<path d="M300.837 187.679H172.687C171.683 187.677 170.72 187.277 170.01 186.567C169.299 185.857 168.9 184.894 168.898 183.89V3.75623C168.908 2.75752 169.312 1.80318 170.021 1.10005C170.731 0.396932 171.688 0.00169116 172.687 0H300.837C301.834 0.00345394 302.79 0.39968 303.496 1.1028C304.203 1.80592 304.605 2.75927 304.613 3.75623V183.89C304.613 184.892 304.216 185.854 303.508 186.564C302.8 187.275 301.84 187.675 300.837 187.679ZM172.687 0.13273C171.727 0.134484 170.806 0.516807 170.127 1.19597C169.448 1.87513 169.065 2.79576 169.064 3.75623V183.89C169.065 184.85 169.448 185.771 170.127 186.45C170.806 187.129 171.727 187.511 172.687 187.513H300.837C301.798 187.511 302.718 187.129 303.397 186.45C304.077 185.771 304.459 184.85 304.461 183.89V3.75623C304.459 2.79576 304.077 1.87513 303.397 1.19597C302.718 0.516807 301.798 0.134484 300.837 0.13273H172.687Z" fill="#EBEBEB"/>
<path d="M300.837 187.679V193.679H300.848L300.858 193.679L300.837 187.679ZM172.687 187.679L172.677 193.679H172.687V187.679ZM168.898 183.89H162.898L162.898 183.9L168.898 183.89ZM168.898 3.75623L162.898 3.69331L162.898 3.72477V3.75623H168.898ZM172.687 0V-6.00001L172.677 -5.99999L172.687 0ZM300.837 0L300.858 -5.99996L300.848 -6H300.837V0ZM304.613 3.75623H310.613V3.72998L310.613 3.70373L304.613 3.75623ZM304.613 183.89H298.613V183.89L304.613 183.89ZM172.687 0.13273V-5.86728L172.676 -5.86726L172.687 0.13273ZM169.064 3.75623L163.064 3.74527V3.75623H169.064ZM169.064 183.89H163.064L163.064 183.9L169.064 183.89ZM172.687 187.513L172.676 193.513H172.687V187.513ZM300.837 187.513V193.513L300.848 193.513L300.837 187.513ZM304.461 183.89L310.461 183.9V183.89H304.461ZM304.461 3.75623H310.461L310.461 3.74527L304.461 3.75623ZM300.837 0.13273L300.848 -5.86727H300.837V0.13273ZM300.837 187.679V181.679H172.687V187.679V193.679H300.837V187.679ZM172.687 187.679L172.698 181.679C173.281 181.68 173.84 181.912 174.252 182.324L170.01 186.567L165.767 190.81C167.6 192.643 170.085 193.674 172.677 193.679L172.687 187.679ZM170.01 186.567L174.252 182.324C174.665 182.737 174.897 183.296 174.898 183.879L168.898 183.89L162.898 183.9C162.902 186.492 163.934 188.977 165.767 190.81L170.01 186.567ZM168.898 183.89H174.898V3.75623H168.898H162.898V183.89H168.898ZM168.898 3.75623L174.897 3.81916C174.891 4.39903 174.657 4.95311 174.245 5.36131L170.021 1.10005L165.797 -3.1612C163.967 -1.34675 162.925 1.11601 162.898 3.69331L168.898 3.75623ZM170.021 1.10005L174.245 5.36131C173.833 5.76952 173.277 5.99901 172.697 5.99999L172.687 0L172.677 -5.99999C170.1 -5.99563 167.628 -4.97566 165.797 -3.1612L170.021 1.10005ZM172.687 0V6H300.837V0V-6H172.687V0ZM300.837 0L300.816 5.99996C300.235 5.99795 299.677 5.76681 299.265 5.35664L303.496 1.1028L307.728 -3.15104C305.902 -4.96745 303.434 -5.99104 300.858 -5.99996L300.837 0ZM303.496 1.1028L299.265 5.35664C298.853 4.94648 298.619 4.39033 298.614 3.80874L304.613 3.75623L310.613 3.70373C310.591 1.12822 309.554 -1.33464 307.728 -3.15104L303.496 1.1028ZM304.613 3.75623H298.613V183.89H304.613H310.613V3.75623H304.613ZM304.613 183.89L298.613 183.89C298.613 183.305 298.845 182.744 299.258 182.329L303.508 186.564L307.758 190.8C309.587 188.965 310.613 186.48 310.613 183.889L304.613 183.89ZM303.508 186.564L299.258 182.329C299.671 181.915 300.231 181.681 300.816 181.679L300.837 187.679L300.858 193.679C303.449 193.67 305.93 192.634 307.758 190.8L303.508 186.564ZM172.687 0.13273L172.676 -5.86726C170.128 -5.86261 167.686 -4.84837 165.884 -3.04667L170.127 1.19597L174.37 5.43861C173.926 5.88198 173.325 6.13157 172.698 6.13272L172.687 0.13273ZM170.127 1.19597L165.884 -3.04667C164.083 -1.24497 163.068 1.19732 163.064 3.74527L169.064 3.75623L175.064 3.76719C175.063 4.3942 174.813 4.99522 174.37 5.43861L170.127 1.19597ZM169.064 3.75623H163.064V183.89H169.064H175.064V3.75623H169.064ZM169.064 183.89L163.064 183.9C163.068 186.448 164.083 188.891 165.884 190.692L170.127 186.45L174.37 182.207C174.813 182.651 175.063 183.252 175.064 183.879L169.064 183.89ZM170.127 186.45L165.884 190.692C167.686 192.494 170.128 193.508 172.676 193.513L172.687 187.513L172.698 181.513C173.325 181.514 173.926 181.764 174.37 182.207L170.127 186.45ZM172.687 187.513V193.513H300.837V187.513V181.513H172.687V187.513ZM300.837 187.513L300.848 193.513C303.396 193.508 305.838 192.494 307.64 190.692L303.397 186.45L299.155 182.207C299.598 181.764 300.199 181.514 300.826 181.513L300.837 187.513ZM303.397 186.45L307.64 190.692C309.442 188.891 310.456 186.448 310.461 183.9L304.461 183.89L298.461 183.879C298.462 183.252 298.711 182.651 299.155 182.207L303.397 186.45ZM304.461 183.89H310.461V3.75623H304.461H298.461V183.89H304.461ZM304.461 3.75623L310.461 3.74527C310.456 1.19732 309.442 -1.24497 307.64 -3.04667L303.397 1.19597L299.155 5.43861C298.711 4.99522 298.462 4.3942 298.461 3.76719L304.461 3.75623ZM303.397 1.19597L307.64 -3.04667C305.838 -4.84837 303.396 -5.86261 300.848 -5.86726L300.837 0.13273L300.826 6.13272C300.199 6.13157 299.598 5.88198 299.155 5.43861L303.397 1.19597ZM300.837 0.13273V-5.86727H172.687V0.13273V6.13273H300.837V0.13273Z" fill="white" mask="url(#path-4-inside-2_1919_4493)"/>
<path d="M298.574 223.595H277.623V223.761H298.574V223.595Z" fill="#EBEBEB"/>
<path d="M222.547 221.797H200.375V221.963H222.547V221.797Z" fill="#EBEBEB"/>
<path d="M304.627 229.761H263.195V229.927H304.627V229.761Z" fill="#EBEBEB"/>
<path d="M47.5767 228.646H34.8148V228.812H47.5767V228.646Z" fill="#EBEBEB"/>
<path d="M73.5917 228.646H53.4899V228.812H73.5917V228.646Z" fill="#EBEBEB"/>
<path d="M162.022 225.845H125.814V226.011H162.022V225.845Z" fill="#EBEBEB"/>
<path d="M183.996 127.971L282.467 127.971V24.0572L183.996 24.0572V127.971Z" fill="#A0A0A0"/>
<path d="M173.444 20.6925H288.845C288.974 20.6925 289.101 20.7179 289.22 20.7674C289.339 20.8168 289.447 20.8893 289.537 20.9806C289.628 21.0718 289.7 21.1802 289.748 21.2993C289.797 21.4184 289.821 21.546 289.821 21.6747C289.821 21.9334 289.718 22.1815 289.535 22.3645C289.352 22.5474 289.104 22.6502 288.845 22.6502H173.444C173.315 22.6511 173.188 22.6265 173.068 22.5779C172.949 22.5292 172.841 22.4575 172.75 22.3668C172.658 22.2762 172.586 22.1683 172.536 22.0495C172.487 21.9307 172.462 21.8033 172.462 21.6747C172.462 21.4142 172.565 21.1643 172.749 20.9802C172.933 20.796 173.183 20.6925 173.444 20.6925Z" fill="#A0A0A0"/>
<path d="M179.815 127.971L280.516 127.971V24.0572L179.815 24.0572V127.971Z" fill="#B6B6B6"/>
<path d="M183.996 131.853H282.467V127.971L183.996 127.971V131.853Z" fill="#A0A0A0"/>
<path d="M172.853 131.853H273.555V127.971L172.853 127.971V131.853Z" fill="#B6B6B6"/>
<path d="M274.663 122.124V29.9105L185.661 29.9105V122.124H274.663Z" fill="#FAFAFA"/>
<path d="M254.462 122.124L220.131 29.9039H203.918L238.255 122.124H254.462Z" fill="#B7B7B7"/>
<path d="M234.771 122.124L200.441 29.9039H194.123L228.453 122.124H234.771Z" fill="#B7B7B7"/>
<path d="M186.411 122.124V29.9105H185.668V122.124H186.411Z" fill="#A0A0A0"/>
<g opacity="0.6">
<path d="M208.796 112.939H175.282L177.187 18.8144H210.701L208.796 112.939Z" fill="#B6B6B6"/>
<path d="M221.85 112.939H195.742L197.647 18.8144H223.755L221.85 112.939Z" fill="#A0A0A0"/>
<path d="M242.31 112.939H208.796L210.701 18.8144H244.215L242.31 112.939Z" fill="#B6B6B6"/>
<path d="M255.364 112.939H229.256L231.161 18.8143L257.269 18.8077L255.364 112.939Z" fill="#A0A0A0"/>
<path d="M275.824 112.939H242.31L244.215 18.8143L277.729 18.8077L275.824 112.939Z" fill="#B6B6B6"/>
</g>
<path d="M146.42 113.51V13.5185L56.828 13.5185V113.51H146.42Z" fill="#EBEBEB"/>
<path d="M147.23 113.51V13.5185H146.42V113.51H147.23Z" fill="#E0E0E0"/>
<path d="M63.471 106.867L139.79 106.867V20.1483L63.471 20.1483L63.471 106.867Z" fill="#F5F5F5"/>
<path d="M104.444 109.747H125.94V79.664H104.444V109.747Z" fill="#B7B7B7"/>
<path d="M78.5889 112.375H100.078L101.624 82.2854H80.1352L78.5889 112.375Z" fill="#B7B7B7"/>
<path d="M59.8674 75.118H81.3563L82.9026 45.0284H61.4137L59.8674 75.118Z" fill="#B7B7B7"/>
<path d="M125.634 47.6983L142.163 48.4228L143.177 25.2904L126.648 24.5659L125.634 47.6983Z" fill="#B7B7B7"/>
<path d="M59.8677 38.4052L76.3965 39.1298L77.4105 15.9974L60.8817 15.2728L59.8677 38.4052Z" fill="#B7B7B7"/>
<path d="M142.832 52.0497L126.289 51.8303L125.982 74.9828L142.525 75.2023L142.832 52.0497Z" fill="#B7B7B7"/>
<path d="M87.6408 73.9517L122.68 72.9363L121.258 23.8869L86.2193 24.9024L87.6408 73.9517Z" fill="#B7B7B7"/>
<path d="M78.2903 217.278V125.429H41.4513L41.4513 217.278H78.2903Z" fill="#B6B6B6"/>
<path d="M76.2661 154.769V127.732H43.4688V154.769H76.2661Z" fill="#A0A0A0"/>
<path d="M76.2661 184.235V157.198H43.4687V184.235H76.2661Z" fill="#A0A0A0"/>
<path d="M76.2661 213.7V186.664H43.4688V213.7H76.2661Z" fill="#A0A0A0"/>
<path d="M56.37 154.769V127.732H43.4687V154.769H56.37Z" fill="#E0E0E0"/>
<path d="M56.3701 184.235V157.198H43.4688V184.235H56.3701Z" fill="#E0E0E0"/>
<path d="M56.3634 213.7V186.664H43.4622V213.7H56.3634Z" fill="#E0E0E0"/>
<path d="M88.2914 217.278V125.429H78.2902V217.278H88.2914Z" fill="#F5F5F5"/>
<path d="M117.678 217.278V125.429H80.8386V217.278H117.678Z" fill="#B6B6B6"/>
<path d="M115.653 154.769V127.732H82.8561V154.769H115.653Z" fill="#A0A0A0"/>
<path d="M115.654 184.235V157.198H82.8562V184.235H115.654Z" fill="#A0A0A0"/>
<path d="M115.66 213.694V186.657H82.8628V213.694H115.66Z" fill="#A0A0A0"/>
<path d="M95.7574 154.769V127.732H82.8562V154.769H95.7574Z" fill="#E0E0E0"/>
<path d="M95.7574 184.235V157.198H82.8562V184.235H95.7574Z" fill="#E0E0E0"/>
<path d="M95.7507 213.7V186.664H82.8495V213.7H95.7507Z" fill="#E0E0E0"/>
<path d="M127.679 217.278V125.429H117.678V217.278H127.679Z" fill="#F5F5F5"/>
<path d="M70.3464 178.919C70.3464 181.852 66.5504 184.228 61.8717 184.228C57.193 184.228 53.4235 181.839 53.4235 178.919H70.3464Z" fill="#B6B6B6"/>
<path d="M70.3464 174.95C70.3464 177.884 66.5504 180.259 61.8717 180.259C57.193 180.259 53.4036 177.884 53.4036 174.95H70.3464Z" fill="#B6B6B6"/>
<path d="M110.829 149.46C110.829 152.393 106.084 154.769 100.21 154.769C94.3372 154.769 89.5922 152.393 89.5922 149.46H110.829Z" fill="#FAFAFA"/>
<path d="M110.829 145.484C110.829 148.418 106.084 150.794 100.21 150.794C94.3372 150.794 89.5922 148.411 89.5922 145.484H110.829Z" fill="#FAFAFA"/>
<path d="M85.0859 213.694H111.718V190.553H85.0859V213.694Z" fill="#B6B6B6"/>
<path d="M115.653 190.559H111.711V213.701H115.653V190.559Z" fill="#E0E0E0"/>
<path d="M45.6986 154.769H72.3307V131.627H45.6986V154.769Z" fill="#B6B6B6"/>
<path d="M76.2661 131.627H72.3241V154.769H76.2661V131.627Z" fill="#E0E0E0"/>
<path d="M177.605 217.278H182.775V168.659H177.605V217.278Z" fill="#A0A0A0"/>
<path d="M176.218 217.278H179.264V168.659H176.218V217.278Z" fill="#B6B6B6"/>
<path d="M248.661 168.659H175.282V174.041H248.661V168.659Z" fill="#B6B6B6"/>
<path d="M281.472 217.278H286.642V168.659H281.472V217.278Z" fill="#A0A0A0"/>
<path d="M280.503 217.278H283.549V168.659H280.503V217.278Z" fill="#B6B6B6"/>
<path d="M287.564 168.659H250.871V174.041H287.564V168.659Z" fill="#A0A0A0"/>
<path d="M249.099 217.278H254.269V168.659H249.099V217.278Z" fill="#A0A0A0"/>
<path d="M247.719 217.278H250.765V168.659H247.719V217.278Z" fill="#B6B6B6"/>
<path d="M165.911 247.248C236.976 247.248 294.586 243.884 294.586 239.735C294.586 235.586 236.976 232.223 165.911 232.223C94.8466 232.223 37.2372 235.586 37.2372 239.735C37.2372 243.884 94.8466 247.248 165.911 247.248Z" fill="#171717"/>
<path d="M198.304 232.701L188.92 231.612V177.784H180.876V231.612L171.493 232.701L170.676 235.369H199.12L198.304 232.701Z" fill="#263238"/>
<path opacity="0.4" d="M198.304 232.701L188.92 231.612V177.784H180.876V231.612L171.493 232.701L170.676 235.369H199.12L198.304 232.701Z" fill="#004EFC"/>
<path d="M182.502 105.354H224.312C217.233 127.478 213.593 150.559 213.521 173.789H171.712C171.784 150.559 175.423 127.478 182.502 105.354Z" fill="#004EFC"/>
<path opacity="0.3" d="M182.502 105.354H224.312C217.233 127.478 213.593 150.559 213.521 173.789H171.712C171.784 150.559 175.423 127.478 182.502 105.354Z" fill="black"/>
<path d="M179.961 105.354H221.77C214.689 127.478 211.047 150.559 210.973 173.789H169.163C169.234 150.559 172.876 127.477 179.961 105.354Z" fill="#004EFC"/>
<path d="M203.918 180.213H144.734C147.223 174.798 151.749 171.479 156.634 171.479H199.91L203.918 180.213Z" fill="#004EFC"/>
<path d="M215.944 180.213H187.367C189.849 174.798 194.375 171.479 199.266 171.479H209.38C214.265 171.479 216.68 174.3 215.944 180.213Z" fill="#004EFC"/>
<path opacity="0.3" d="M215.944 180.213H187.367C189.849 174.798 194.375 171.479 199.266 171.479H209.38C214.265 171.479 216.68 174.3 215.944 180.213Z" fill="black"/>
<path d="M157.583 229.827L152.227 230.531L148.743 218.399L154.098 217.696L157.583 229.827Z" fill="#FFC3BD"/>
<path d="M151.557 229.13L157.53 228.34C157.63 228.325 157.732 228.349 157.815 228.407C157.898 228.465 157.955 228.553 157.974 228.652L158.89 233.371C158.924 233.621 158.858 233.874 158.707 234.075C158.555 234.277 158.33 234.41 158.08 234.446C155.983 234.685 154.968 234.692 152.327 235.043C150.701 235.256 145.106 236.032 142.843 236.045C140.58 236.059 140.693 233.822 141.622 233.603C145.916 232.674 149.32 230.949 150.674 229.575C150.911 229.333 151.221 229.177 151.557 229.13Z" fill="#263238"/>
<path opacity="0.2" d="M154.098 217.702L148.743 218.406L150.541 224.657L155.897 223.954L154.098 217.702Z" fill="black"/>
<path d="M175.149 152.041C175.149 152.041 133.174 155.048 134.866 170.424C137.302 192.53 146.812 221.558 146.812 221.558L156.547 219.886C156.547 219.886 152.473 193.121 150.309 175.866C160.781 171.526 189.185 175.687 192.517 166.641C194.151 161.956 194.582 156.936 193.771 152.041H175.149Z" fill="#263238"/>
<path opacity="0.3" d="M154.696 164.843C154.696 164.843 155.718 169.415 156.415 174.379H156.322L155.247 174.545L154.696 174.652L154.079 174.764C153.236 174.941 152.403 175.163 151.583 175.428L151.019 175.614C150.774 175.693 150.535 175.793 150.309 175.886C150.555 177.877 151.404 180.472 151.411 182.741C142.073 171.698 149.772 164.843 154.696 164.843Z" fill="black"/>
<path d="M158.074 222.096L146.652 223.595L145.113 219.487L156.547 216.926L158.074 222.096Z" fill="#004EFC"/>
<path d="M149.778 230.285C150.257 230.209 150.726 230.083 151.178 229.907C151.201 229.899 151.221 229.884 151.236 229.866C151.251 229.847 151.261 229.824 151.265 229.801C151.266 229.776 151.259 229.751 151.246 229.73C151.233 229.708 151.214 229.692 151.192 229.681C151.006 229.582 149.36 228.745 148.736 229.09C148.666 229.131 148.607 229.187 148.564 229.256C148.522 229.324 148.496 229.402 148.491 229.482C148.465 229.605 148.474 229.732 148.518 229.849C148.561 229.967 148.637 230.069 148.736 230.146C149.054 230.32 149.426 230.37 149.778 230.285ZM150.813 229.774C149.884 230.086 149.174 230.152 148.889 229.933C148.828 229.881 148.782 229.814 148.756 229.738C148.731 229.662 148.726 229.58 148.743 229.502C148.743 229.463 148.754 229.425 148.774 229.391C148.794 229.357 148.822 229.329 148.856 229.309C149.194 229.15 150.143 229.482 150.813 229.801V229.774Z" fill="#004EFC"/>
<path d="M151.152 229.94C151.169 229.947 151.188 229.947 151.205 229.94C151.224 229.928 151.239 229.911 151.249 229.891C151.26 229.871 151.265 229.849 151.265 229.827C151.265 229.767 151.178 228.208 150.568 227.763C150.491 227.703 150.401 227.662 150.305 227.643C150.21 227.625 150.111 227.629 150.017 227.657C149.91 227.674 149.813 227.727 149.739 227.806C149.666 227.886 149.621 227.987 149.612 228.095C149.566 228.692 150.515 229.708 151.086 229.953C151.108 229.956 151.132 229.951 151.152 229.94ZM150.137 227.869C150.237 227.856 150.34 227.882 150.422 227.942C150.782 228.419 150.982 228.997 150.993 229.595C150.475 229.263 149.831 228.487 149.864 228.095C149.864 228.015 149.898 227.922 150.077 227.883L150.137 227.869Z" fill="#004EFC"/>
<path d="M180.963 110.53C180.498 112.614 179.934 114.552 179.37 116.543C178.806 118.534 178.169 120.478 177.479 122.423C176.789 124.367 176.065 126.312 175.275 128.243C174.486 130.174 173.603 132.079 172.654 133.97L172.481 134.309L172.415 134.408C171.84 135.225 171.131 135.938 170.318 136.519C169.694 136.972 169.04 137.382 168.36 137.746C167.143 138.378 165.881 138.919 164.584 139.366C163.33 139.804 162.076 140.169 160.821 140.48C159.559 140.794 158.28 141.043 156.992 141.224L155.751 137.375L158.903 135.609C159.945 135.012 160.974 134.421 161.956 133.811C162.905 133.239 163.822 132.616 164.704 131.946C165.08 131.666 165.433 131.355 165.759 131.017C166.031 130.732 166.23 130.453 166.19 130.426L165.951 130.864C166.675 129.099 167.338 127.287 167.982 125.456C168.626 123.624 169.21 121.766 169.787 119.888C170.364 118.009 170.915 116.131 171.453 114.24C171.99 112.349 172.515 110.424 173.012 108.599L180.963 110.53Z" fill="#FFC3BD"/>
<path d="M172.189 109.09C167.803 114.127 164.889 121.175 164.889 121.175L176.37 128.084C179.689 124.042 183.816 113.364 183.982 109.76C184.241 104.226 176.915 103.668 172.189 109.09Z" fill="#004EFC"/>
<path opacity="0.5" d="M172.189 109.09C167.803 114.127 164.889 121.175 164.889 121.175L176.37 128.084C179.689 124.042 183.816 113.364 183.982 109.76C184.241 104.226 176.915 103.668 172.189 109.09Z" fill="#B7B7B7"/>
<path opacity="0.5" d="M176.231 114.227C173.729 116.33 171.951 120.704 171.174 124.951L176.37 128.077C178.01 126.086 179.848 122.469 181.308 118.872C180.14 115.308 178.441 112.368 176.231 114.227Z" fill="#004EFC"/>
<path d="M174.612 233.059H169.216L166.741 220.563H172.136L174.612 233.059Z" fill="#FFC3BD"/>
<path d="M169.044 231.745H175.109C175.21 231.741 175.309 231.778 175.383 231.846C175.458 231.914 175.502 232.009 175.508 232.11L175.8 236.908C175.801 237.16 175.703 237.403 175.527 237.584C175.35 237.764 175.11 237.867 174.857 237.87C172.747 237.831 171.738 237.711 169.07 237.711C167.431 237.711 161.87 237.877 159.607 237.877C157.344 237.877 157.403 235.641 158.366 235.435C162.666 234.526 166.595 233.271 168.115 232.077C168.379 231.866 168.706 231.749 169.044 231.745Z" fill="#263238"/>
<path opacity="0.2" d="M172.136 220.563H166.741L168.022 227.007H173.417L172.136 220.563Z" fill="black"/>
<path d="M185.721 152.041C185.721 152.041 150.15 155.048 151.026 170.497C151.981 187.414 165.679 225.454 165.679 225.454H175.561C175.561 225.454 171.088 191.037 168.924 173.809C178.952 173.809 199.757 175.7 203.089 166.655C204.717 162.054 205.045 157.095 204.038 152.32L185.721 152.041Z" fill="#263238"/>
<path d="M176.125 225.606L164.272 226.144L163.356 221.054L175.76 221.094L176.125 225.606Z" fill="#004EFC"/>
<path d="M167.132 232.687C167.618 232.673 168.1 232.608 168.572 232.495C168.596 232.489 168.617 232.476 168.634 232.459C168.65 232.441 168.661 232.419 168.665 232.395C168.671 232.371 168.668 232.347 168.659 232.324C168.649 232.301 168.633 232.282 168.612 232.269C168.44 232.15 166.913 231.101 166.256 231.36C166.181 231.39 166.115 231.439 166.064 231.502C166.013 231.564 165.979 231.639 165.964 231.718C165.928 231.833 165.924 231.955 165.952 232.072C165.98 232.189 166.039 232.296 166.124 232.382C166.409 232.608 166.77 232.717 167.132 232.687ZM168.227 232.309C167.258 232.502 166.548 232.475 166.296 232.223C166.244 232.162 166.208 232.088 166.193 232.009C166.178 231.929 166.184 231.848 166.21 231.772C166.216 231.732 166.232 231.695 166.256 231.664C166.281 231.632 166.313 231.608 166.349 231.592C166.701 231.46 167.597 231.911 168.227 232.309Z" fill="#004EFC"/>
<path d="M168.566 232.495H168.619C168.638 232.486 168.654 232.472 168.666 232.454C168.677 232.437 168.684 232.416 168.685 232.395C168.685 232.329 168.811 230.776 168.267 230.252C168.197 230.185 168.113 230.134 168.022 230.103C167.93 230.073 167.833 230.062 167.736 230.073C167.628 230.077 167.525 230.118 167.442 230.187C167.359 230.257 167.302 230.352 167.278 230.458C167.159 231.042 167.942 232.17 168.5 232.488C168.52 232.497 168.544 232.499 168.566 232.495ZM167.823 230.305C167.873 230.305 167.923 230.314 167.97 230.334C168.017 230.353 168.059 230.382 168.095 230.418C168.394 230.936 168.52 231.536 168.453 232.13C167.982 231.738 167.444 230.882 167.524 230.497C167.524 230.424 167.584 230.331 167.77 230.312L167.823 230.305Z" fill="#004EFC"/>
<path d="M158.306 137.521L152.273 136.008L152.698 142.458C152.698 142.458 158.671 142.458 159.175 140.699L158.306 137.521Z" fill="#FFC3BD"/>
<path d="M147.688 139.153L149.108 143.201L152.698 142.458L152.273 136.008L147.688 139.153Z" fill="#FFC3BD"/>
<path d="M175.202 152.32H204.058C204.263 149.745 203.666 141.357 204.111 130.678C204.385 122.766 205.344 114.892 206.978 107.146C207.11 106.562 207.243 105.991 207.383 105.407C207.383 105.407 205.916 105.108 203.819 104.803C202.08 104.544 199.897 104.285 197.76 104.186C193.675 103.95 189.58 103.95 185.496 104.186C183.611 104.358 181.766 104.67 180.299 104.956C178.421 105.334 177.313 105.659 177.313 105.659C177.313 105.659 170.185 121.978 175.202 152.32Z" fill="#004EFC"/>
<path opacity="0.5" d="M175.202 152.32H204.058C204.263 149.745 203.666 141.357 204.111 130.678C204.385 122.766 205.344 114.892 206.978 107.146C207.11 106.562 207.243 105.991 207.383 105.407C207.383 105.407 205.916 105.108 203.819 104.803C202.08 104.544 199.897 104.285 197.76 104.186C193.675 103.95 189.58 103.95 185.496 104.186C183.611 104.358 181.766 104.67 180.299 104.956C178.421 105.334 177.313 105.659 177.313 105.659C177.313 105.659 170.185 121.978 175.202 152.32Z" fill="#B7B7B7"/>
<path opacity="0.5" d="M204.091 130.685C204.365 122.771 205.324 114.895 206.958 107.146C205.033 106.98 201.735 107.146 201.191 110.285C200.6 113.629 200.554 121.447 204.091 130.685Z" fill="#004EFC"/>
<path d="M209.194 109.143C209.473 109.654 209.665 110.039 209.858 110.47C210.05 110.902 210.263 111.333 210.455 111.798C210.84 112.66 211.205 113.53 211.55 114.406C212.241 116.171 212.837 117.972 213.335 119.801C213.848 121.655 214.245 123.539 214.523 125.442C214.813 127.406 214.928 129.391 214.868 131.375V131.568V131.946C214.847 132.211 214.809 132.475 214.756 132.736C214.654 133.231 214.493 133.712 214.278 134.169C213.916 134.932 213.424 135.626 212.824 136.22C211.933 137.088 210.909 137.809 209.792 138.357C207.987 139.236 206.088 139.904 204.131 140.348C202.315 140.781 200.476 141.111 198.622 141.337C196.79 141.566 194.947 141.699 193.101 141.735L192.557 137.72C195.841 136.799 199.077 135.713 202.253 134.468C203.694 133.91 205.079 133.215 206.387 132.391C206.842 132.109 207.246 131.752 207.582 131.335C207.668 131.209 207.668 131.143 207.621 131.203C207.585 131.255 207.558 131.313 207.542 131.375C207.527 131.418 207.516 131.463 207.509 131.508C207.509 131.508 207.509 131.574 207.509 131.548V131.408C207.257 128.23 206.617 125.094 205.604 122.071C205.1 120.514 204.538 118.965 203.918 117.425C203.62 116.656 203.301 115.886 202.969 115.129L202.458 114.008L201.974 112.966L209.194 109.143Z" fill="#FFC3BD"/>
<path d="M207.363 105.407C202.107 103.748 198.735 107.949 200.195 115.229C201.655 122.509 203.513 125.223 203.513 125.223L215.804 123.485C214.802 116.344 212.738 107.106 207.363 105.407Z" fill="#004EFC"/>
<path opacity="0.5" d="M207.363 105.407C202.107 103.748 198.735 107.949 200.195 115.229C201.655 122.509 203.513 125.223 203.513 125.223L215.804 123.485C214.802 116.344 212.738 107.106 207.363 105.407Z" fill="#B7B7B7"/>
<path d="M197.474 90.4283L194.196 93.1493L189.723 96.8923C189.855 97.4875 189.951 98.0903 190.008 98.6974C190.247 101.126 189.623 103.343 186.06 104.172C186.06 104.172 182.549 107.451 189.564 107.55C196.578 107.65 198.191 104.232 198.191 104.232C195.543 101.578 196.565 94.377 197.474 90.4283Z" fill="#FFC3BD"/>
<path d="M197.713 102.248C197.713 102.248 194.05 106.077 189.219 107.517C190.086 107.69 190.869 108.15 191.443 108.823C192.016 109.496 192.345 110.343 192.377 111.227C195.848 110.192 199.97 104.975 199.857 104.007C199.107 103.465 198.391 102.878 197.713 102.248Z" fill="#B7B7B7"/>
<path d="M187.659 103.33C187.659 103.33 184.381 106.077 189.219 107.517C188.33 107.624 187.495 107.999 186.824 108.591C186.153 109.184 185.678 109.967 185.462 110.835C184.603 109.881 184.085 108.669 183.989 107.389C183.893 106.109 184.224 104.833 184.931 103.761C185.849 103.676 186.76 103.532 187.659 103.33Z" fill="#B7B7B7"/>
<path opacity="0.2" d="M189.723 96.8923C189.855 97.4875 189.951 98.0904 190.008 98.6974C191.674 98.3656 193.904 96.587 194.136 94.8881C194.216 94.3232 194.236 93.7515 194.196 93.1825L189.723 96.8923Z" fill="black"/>
<path d="M185.442 78.3102C183.239 80.1352 183.637 87.1964 185.754 86.546C187.871 85.8956 189.079 75.3105 185.442 78.3102Z" fill="#263238"/>
<path d="M198.828 84.7476C197.687 89.9904 197.289 93.1095 194.183 95.5053C193.184 96.2908 191.99 96.7888 190.729 96.9457C189.468 97.1025 188.188 96.9122 187.027 96.3953C185.866 95.8784 184.868 95.0545 184.141 94.0123C183.414 92.9702 182.985 91.7494 182.901 90.4815C182.496 85.597 184.434 77.839 189.949 76.3524C191.135 76.0005 192.394 75.9666 193.597 76.2542C194.801 76.5418 195.908 77.1408 196.808 77.9911C197.707 78.8414 198.367 79.9132 198.722 81.099C199.076 82.2849 199.113 83.5431 198.828 84.7476Z" fill="#FFC3BD"/>
<path d="M197.103 88.3445C196.253 87.2959 196.193 84.6281 196.797 83.7786C195.888 83.0553 194.979 80.7192 195.682 79.7968C193.904 79.6773 184.699 81.8872 182.867 75.2773C183.821 75.4398 184.794 75.4398 185.748 75.2773C185.748 75.2773 183.876 72.1648 187.194 71.2357C187.679 72.8086 191.681 72.9678 193.665 72.8948C197.733 72.7289 202.372 74.4212 200.494 77.5802C203.467 78.8875 203.951 84.6613 197.103 88.3445Z" fill="#263238"/>
<path d="M199.757 77.3811C199.757 77.3811 201.788 77.8058 201.396 75.2176C203.075 76.6378 202 79.2327 199.757 77.3811Z" fill="#263238"/>
<path d="M199.684 89.5921C198.973 90.5166 197.949 91.1492 196.804 91.3707C195.317 91.6362 194.866 90.2691 195.523 88.9484C196.114 87.7538 197.6 86.181 198.967 86.5195C200.335 86.8579 200.567 88.4507 199.684 89.5921Z" fill="#FFC3BD"/>
<path d="M196.625 86.4929C196.073 88.4245 195.173 90.2394 193.97 91.8485C193.344 92.6778 192.521 93.3375 191.575 93.7675C190.63 94.1975 189.591 94.3842 188.555 94.3107C186.65 94.2775 186.942 91.6561 186.942 91.6561L186.006 91.4437C186.006 91.4437 186.106 94.6889 184.248 93.3152C183.753 92.74 183.396 92.0589 183.206 91.3243C183.012 90.75 182.9 90.1512 182.874 89.5457C182.423 90.2624 182.257 93.4413 182.947 94.9544C183.6 96.09 184.664 96.9312 185.92 97.3037C188.214 97.9543 190.653 97.8684 192.895 97.0582C196.28 95.7309 196.771 92.4657 196.877 90.6075C197.004 89.2312 197.226 87.8653 197.541 86.5195L196.625 86.4929Z" fill="#263238"/>
<path d="M189.842 85.2254C189.776 85.6567 189.497 85.9753 189.212 85.9421C188.927 85.9089 188.754 85.5307 188.82 85.1059C188.887 84.6812 189.172 84.3494 189.484 84.3825C189.796 84.4157 189.909 84.794 189.842 85.2254Z" fill="#263238"/>
<path d="M184.958 84.6414C184.892 85.0727 184.613 85.3979 184.327 85.3647C184.042 85.3316 183.87 84.9533 183.936 84.5219C184.002 84.0905 184.288 83.772 184.566 83.8052C184.845 83.8384 185.024 84.21 184.958 84.6414Z" fill="#263238"/>
<path d="M186.484 84.8139C185.942 85.9242 185.255 86.9575 184.44 87.8866C184.681 88.0801 184.962 88.218 185.263 88.2903C185.563 88.3625 185.876 88.3675 186.179 88.3047L186.484 84.8139Z" fill="#ED847E"/>
<path d="M186.153 90.4284C186.652 90.5049 187.162 90.4791 187.652 90.3525C188.141 90.2259 188.6 90.001 189 89.6917C189.012 89.6808 189.023 89.6675 189.03 89.6526C189.038 89.6377 189.042 89.6215 189.043 89.6049C189.045 89.5882 189.043 89.5715 189.037 89.5557C189.032 89.5398 189.024 89.5252 189.013 89.5125C189.002 89.4999 188.989 89.4895 188.974 89.482C188.959 89.4745 188.943 89.47 188.926 89.4688C188.909 89.4676 188.893 89.4696 188.877 89.4748C188.861 89.4801 188.846 89.4884 188.834 89.4993C188.394 89.8285 187.885 90.0525 187.345 90.1537C186.806 90.255 186.25 90.2309 185.721 90.0833C185.705 90.0793 185.688 90.0786 185.672 90.0811C185.655 90.0836 185.64 90.0894 185.626 90.098C185.611 90.1067 185.599 90.118 185.589 90.1314C185.579 90.1448 185.572 90.16 185.569 90.1762C185.564 90.1919 185.562 90.2084 185.563 90.2248C185.565 90.2412 185.57 90.257 185.578 90.2714C185.586 90.2857 185.597 90.2982 185.611 90.3081C185.624 90.318 185.639 90.325 185.655 90.3288C185.818 90.3734 185.985 90.4067 186.153 90.4284Z" fill="#263238"/>
<path d="M192.616 82.5575C192.659 82.5496 192.699 82.5288 192.729 82.4978C192.753 82.4743 192.772 82.4464 192.784 82.4157C192.797 82.3849 192.804 82.3519 192.804 82.3186C192.804 82.2853 192.797 82.2523 192.784 82.2215C192.772 82.1908 192.753 82.1629 192.729 82.1394C192.469 81.833 192.137 81.5956 191.763 81.4486C191.389 81.3015 190.985 81.2493 190.586 81.2966C190.552 81.3014 190.52 81.3129 190.492 81.3302C190.463 81.3476 190.438 81.3706 190.418 81.3978C190.398 81.425 190.384 81.4559 190.376 81.4887C190.369 81.5214 190.368 81.5554 190.373 81.5886C190.386 81.6552 190.425 81.714 190.481 81.7525C190.536 81.791 190.605 81.806 190.672 81.7943C190.984 81.7648 191.299 81.8095 191.591 81.9249C191.883 82.0402 192.143 82.2229 192.351 82.458C192.379 82.5 192.42 82.5321 192.468 82.5499C192.515 82.5677 192.567 82.5704 192.616 82.5575Z" fill="#263238"/>
<path d="M183.352 81.509C183.391 81.5228 183.434 81.5257 183.474 81.5176C183.515 81.5094 183.553 81.4904 183.584 81.4625C183.829 81.2454 184.12 81.088 184.436 81.0028C184.751 80.9176 185.082 80.9068 185.403 80.9714C185.469 80.988 185.538 80.9787 185.598 80.9454C185.657 80.912 185.701 80.8572 185.721 80.7922C185.739 80.7262 185.731 80.6556 185.697 80.5959C185.664 80.5362 185.608 80.4922 185.542 80.4737C185.141 80.3904 184.726 80.4011 184.33 80.5047C183.934 80.6083 183.568 80.8021 183.259 81.0709C183.232 81.0915 183.21 81.1174 183.194 81.147C183.177 81.1766 183.167 81.2093 183.164 81.2429C183.161 81.2765 183.165 81.3104 183.176 81.3425C183.186 81.3746 183.203 81.4041 183.226 81.4293C183.259 81.4677 183.303 81.4954 183.352 81.509Z" fill="#263238"/>
<path d="M193.572 137.481H188.588L191.004 142.79C191.004 142.79 195.901 142.717 195.649 140.195L193.572 137.481Z" fill="#FFC3BD"/>
<path d="M183.836 140.899L186.391 144.343L191.004 142.783L188.588 137.474L183.836 140.899Z" fill="#FFC3BD"/>
<path d="M230.517 238.839H232.94V146.42H230.517V238.839Z" fill="#004EFC"/>
<path d="M244.826 238.839H247.248V146.42H244.826V238.839Z" fill="#004EFC"/>
<path opacity="0.2" d="M244.826 238.839H247.248V146.42H244.826V238.839Z" fill="black"/>
<path d="M92.8772 238.839H95.2996L95.2996 146.42H92.8772L92.8772 238.839Z" fill="#004EFC"/>
<path opacity="0.2" d="M92.8772 146.42H95.2995V208.517L92.8772 203.095V146.42Z" fill="black"/>
<path d="M78.5756 238.839H80.9979L80.9979 146.42H78.5756L78.5756 238.839Z" fill="#004EFC"/>
<path d="M78.5757 200.481L232.946 200.481V146.42L78.5757 146.42V200.481Z" fill="#004EFC"/>
<path d="M77.0294 146.42L232.946 146.42V142.471L77.0294 142.471V146.42Z" fill="#004EFC"/>
<path d="M247.241 146.42H232.94V200.481H247.241V146.42Z" fill="#004EFC"/>
<path opacity="0.2" d="M247.241 146.42H232.94V200.481H247.241V146.42Z" fill="black"/>
<path d="M248.787 142.478H232.94V146.427H248.787V142.478Z" fill="#004EFC"/>
<path opacity="0.2" d="M248.787 142.478H232.94V146.427H248.787V142.478Z" fill="black"/>
<path opacity="0.2" d="M78.5757 149.174L247.248 149.174V146.427L78.5757 146.427V149.174Z" fill="black"/>
<path d="M175.123 131.866H117.751C116.682 131.853 115.659 131.434 114.888 130.695C114.117 129.956 113.655 128.951 113.596 127.884L112.083 94.5429C112.055 94.0289 112.132 93.5145 112.31 93.0315C112.488 92.5484 112.763 92.1069 113.118 91.7339C113.473 91.361 113.901 91.0646 114.374 90.8629C114.848 90.6612 115.358 90.5585 115.873 90.5611H173.245C174.312 90.5762 175.333 90.9957 176.103 91.7347C176.873 92.4738 177.334 93.4774 177.392 94.5429L178.912 127.884C178.941 128.399 178.865 128.914 178.687 129.397C178.509 129.88 178.234 130.322 177.879 130.696C177.524 131.069 177.096 131.365 176.622 131.566C176.148 131.768 175.638 131.87 175.123 131.866Z" fill="#004EFC"/>
<path d="M174.353 131.866H116.981C115.913 131.853 114.889 131.434 114.118 130.695C113.347 129.956 112.885 128.951 112.826 127.884L111.313 94.5429C111.285 94.0289 111.363 93.5145 111.541 93.0315C111.719 92.5484 111.993 92.1069 112.348 91.7339C112.703 91.361 113.131 91.0646 113.604 90.8629C114.078 90.6612 114.588 90.5585 115.103 90.5611H172.475C173.542 90.5762 174.563 90.9957 175.333 91.7347C176.103 92.4738 176.564 93.4774 176.623 94.5429L178.142 127.884C178.171 128.399 178.095 128.914 177.917 129.397C177.739 129.88 177.465 130.322 177.109 130.696C176.754 131.069 176.327 131.365 175.852 131.566C175.378 131.768 174.868 131.87 174.353 131.866Z" fill="#004EFC"/>
<path opacity="0.2" d="M174.353 131.866H116.981C115.913 131.853 114.889 131.434 114.118 130.695C113.347 129.956 112.885 128.951 112.826 127.884L111.313 94.5429C111.285 94.0289 111.363 93.5145 111.541 93.0315C111.719 92.5484 111.993 92.1069 112.348 91.7339C112.703 91.361 113.131 91.0646 113.604 90.8629C114.078 90.6612 114.588 90.5585 115.103 90.5611H172.475C173.542 90.5762 174.563 90.9957 175.333 91.7347C176.103 92.4738 176.564 93.4774 176.623 94.5429L178.142 127.884C178.171 128.399 178.095 128.914 177.917 129.397C177.739 129.88 177.465 130.322 177.109 130.696C176.754 131.069 176.327 131.365 175.852 131.566C175.378 131.768 174.868 131.87 174.353 131.866Z" fill="#B7B7B7"/>
<path d="M150.82 111.718H139.863V131.866H150.82V111.718Z" fill="#004EFC"/>
<path d="M139.518 109.568L134.68 142.465H146.533L151.371 109.568H139.518ZM146.48 120.02L145.697 125.329C145.639 125.723 145.442 126.084 145.141 126.344C144.84 126.605 144.456 126.749 144.058 126.75H142.272C142.034 126.749 141.798 126.698 141.581 126.598C141.364 126.499 141.171 126.354 141.015 126.173C140.859 125.992 140.743 125.78 140.676 125.551C140.609 125.322 140.592 125.081 140.627 124.845L141.41 119.536C141.467 119.142 141.664 118.782 141.965 118.521C142.266 118.26 142.651 118.116 143.049 118.116H144.834C145.073 118.116 145.309 118.168 145.526 118.267C145.743 118.367 145.936 118.512 146.092 118.692C146.248 118.873 146.363 119.085 146.43 119.314C146.497 119.543 146.514 119.784 146.48 120.02Z" fill="#004EFC"/>
<path opacity="0.2" d="M139.518 109.568L134.68 142.465H146.533L151.371 109.568H139.518ZM146.48 120.02L145.697 125.329C145.639 125.723 145.442 126.084 145.141 126.344C144.84 126.605 144.456 126.749 144.058 126.75H142.272C142.034 126.749 141.798 126.698 141.581 126.598C141.364 126.499 141.171 126.354 141.015 126.173C140.859 125.992 140.743 125.78 140.676 125.551C140.609 125.322 140.592 125.081 140.627 124.845L141.41 119.536C141.467 119.142 141.664 118.782 141.965 118.521C142.266 118.26 142.651 118.116 143.049 118.116H144.834C145.073 118.116 145.309 118.168 145.526 118.267C145.743 118.367 145.936 118.512 146.092 118.692C146.248 118.873 146.363 119.085 146.43 119.314C146.497 119.543 146.514 119.784 146.48 120.02Z" fill="#B7B7B7"/>
<path d="M153.289 140.062H132.543L129.995 142.478H158.804L153.289 140.062Z" fill="#004EFC"/>
<path opacity="0.2" d="M153.289 140.062H132.543L129.995 142.478H158.804L153.289 140.062Z" fill="#B7B7B7"/>
<path d="M92.0211 135.098C90.8531 134.435 91.2513 128.05 91.7623 124.4C92.3861 119.987 94.2443 112.176 100.151 107.849C102.965 105.785 105.652 104.033 106.124 101.81C106.986 103.801 111.891 117.897 104.896 124.234C98.9761 129.59 94.5894 128.395 92.0211 135.098Z" fill="#004EFC"/>
<g opacity="0.2">
<path d="M92.0211 135.098C90.8531 134.435 91.2513 128.05 91.7623 124.4C92.3861 119.987 94.2443 112.176 100.151 107.849C102.965 105.785 105.652 104.033 106.124 101.81C106.986 103.801 111.891 117.897 104.896 124.234C98.9761 129.59 94.5894 128.395 92.0211 135.098Z" fill="black"/>
</g>
<path d="M93.574 131.475C94.9345 130.712 93.375 123.272 92.1273 119.038C90.6208 113.915 86.9973 104.863 78.8544 99.9118C74.992 97.5559 71.322 95.5649 70.3465 92.9701C69.5899 95.2729 67.161 113.41 76.9829 120.684C85.3249 126.836 89.2272 123.723 93.574 131.475Z" fill="#004EFC"/>
<path d="M92.9105 129.816C92.8705 129.815 92.8318 129.802 92.7997 129.778C92.7676 129.754 92.7437 129.721 92.7313 129.683C90.717 123.413 88.1681 117.327 85.1126 111.492C80.1353 101.704 73.4391 100.111 73.3727 100.098C73.3495 100.092 73.3276 100.082 73.3083 100.068C73.289 100.054 73.2727 100.036 73.2603 100.016C73.248 99.9956 73.2398 99.973 73.2363 99.9494C73.2328 99.9258 73.2341 99.9017 73.24 99.8786C73.2447 99.8555 73.254 99.8336 73.2673 99.814C73.2805 99.7945 73.2975 99.7778 73.3172 99.7648C73.337 99.7519 73.3591 99.743 73.3822 99.7386C73.4054 99.7342 73.4293 99.7344 73.4524 99.7393C73.5254 99.7393 80.3742 101.372 85.4378 111.333C88.4938 117.189 91.0405 123.297 93.0498 129.59C93.0622 129.637 93.056 129.686 93.0324 129.728C93.0089 129.77 92.9699 129.802 92.9237 129.816H92.9105Z" fill="#B7B7B7"/>
<path d="M71.7401 106.522C71.717 106.523 71.694 106.519 71.6723 106.511C71.6507 106.503 71.6308 106.491 71.614 106.475C71.5803 106.441 71.5615 106.394 71.5615 106.346C71.5615 106.298 71.5803 106.251 71.614 106.216C72.8423 105.042 74.4064 104.279 76.0884 104.035C77.7704 103.792 79.4866 104.078 80.9979 104.856C81.0194 104.866 81.0386 104.88 81.0543 104.898C81.0701 104.915 81.0821 104.936 81.0895 104.958C81.097 104.981 81.0998 105.004 81.0977 105.028C81.0957 105.051 81.0888 105.074 81.0776 105.095C81.0683 105.117 81.0547 105.137 81.0373 105.153C81.02 105.17 80.9995 105.182 80.9771 105.19C80.9546 105.199 80.9307 105.202 80.9069 105.2C80.8831 105.199 80.8598 105.192 80.8387 105.181C79.392 104.442 77.7506 104.172 76.1433 104.41C74.5361 104.648 73.0432 105.382 71.8728 106.508C71.8314 106.528 71.7845 106.533 71.7401 106.522Z" fill="#B7B7B7"/>
<path d="M78.7548 118.633C78.7245 118.642 78.6923 118.642 78.6619 118.633C78.6414 118.622 78.6234 118.606 78.6089 118.587C78.5944 118.569 78.5838 118.547 78.5776 118.524C78.5714 118.501 78.5699 118.478 78.5729 118.454C78.576 118.431 78.5837 118.408 78.5956 118.388C78.5956 118.328 81.9138 112.853 86.7783 114.193C86.8245 114.207 86.8635 114.239 86.887 114.281C86.9105 114.323 86.9168 114.372 86.9044 114.419C86.8905 114.465 86.8592 114.504 86.8171 114.528C86.775 114.551 86.7254 114.558 86.6788 114.545C82.093 113.278 78.9407 118.527 78.9141 118.574C78.8939 118.595 78.869 118.612 78.8414 118.622C78.8138 118.632 78.7842 118.636 78.7548 118.633Z" fill="#B7B7B7"/>
<path d="M84.0175 109.329C83.9776 109.328 83.9389 109.315 83.9068 109.291C83.8747 109.267 83.8507 109.234 83.8384 109.196C83.6702 108.567 83.7314 107.899 84.0109 107.311C84.1168 107.145 84.2567 107.003 84.4213 106.894C84.586 106.785 84.7718 106.713 84.9665 106.681C84.9897 106.675 85.0138 106.674 85.0373 106.678C85.0609 106.682 85.0834 106.691 85.1033 106.704C85.1233 106.717 85.1403 106.734 85.1533 106.754C85.1663 106.774 85.175 106.797 85.1789 106.82C85.1889 106.868 85.1799 106.917 85.1538 106.958C85.1278 106.999 85.0868 107.028 85.0395 107.039C84.893 107.058 84.7525 107.11 84.6284 107.19C84.5044 107.271 84.4 107.378 84.3228 107.504C84.0981 108.006 84.0513 108.571 84.1901 109.103C84.1971 109.126 84.1993 109.15 84.1967 109.173C84.194 109.197 84.1866 109.22 84.1747 109.24C84.1629 109.261 84.147 109.279 84.1279 109.293C84.1089 109.307 84.0871 109.317 84.064 109.322L84.0175 109.329Z" fill="#B7B7B7"/>
<path d="M102.487 128.077H85.6899L87.2362 142.458H100.941L102.487 128.077Z" fill="#004EFC"/>
<path opacity="0.7" d="M102.487 128.077H85.6899L87.2362 142.458H100.941L102.487 128.077Z" fill="#B7B7B7"/>
<path d="M235.594 129.411V128.515C235.594 128.323 235.518 128.139 235.382 128.003C235.247 127.868 235.063 127.792 234.871 127.792H225.945C225.753 127.792 225.569 127.868 225.433 128.003C225.298 128.139 225.221 128.323 225.221 128.515V142.451H235.594V140.832C237.851 140.832 239.623 138.324 239.623 135.118C239.623 131.913 237.857 129.411 235.594 129.411ZM235.594 139.366V130.884C236.988 130.884 238.169 132.835 238.169 135.145C238.169 137.454 236.995 139.405 235.594 139.405V139.366Z" fill="#004EFC"/>
<path opacity="0.2" d="M235.594 129.411V128.515C235.594 128.323 235.518 128.139 235.382 128.003C235.247 127.868 235.063 127.792 234.871 127.792H225.945C225.753 127.792 225.569 127.868 225.433 128.003C225.298 128.139 225.221 128.323 225.221 128.515V142.451H235.594V140.832C237.851 140.832 239.623 138.324 239.623 135.118C239.623 131.913 237.857 129.411 235.594 129.411ZM235.594 139.366V130.884C236.988 130.884 238.169 132.835 238.169 135.145C238.169 137.454 236.995 139.405 235.594 139.405V139.366Z" fill="#B7B7B7"/>
<path opacity="0.3" d="M235.601 130.884H234.42L235.601 134.156V130.884Z" fill="black"/>
<path opacity="0.3" d="M235.601 140.859H234.42L235.601 141.403V140.859Z" fill="black"/>
</svg>
